<svg width="66" height="66" viewBox="0 0 66 66" fill="none" xmlns="http://www.w3.org/2000/svg">
<path fill-rule="evenodd" clip-rule="evenodd" d="M33 66C51.2254 66 66 51.2254 66 33C66 14.7746 51.2254 0 33 0C14.7746 0 0 14.7746 0 33C0 51.2254 14.7746 66 33 66ZM22.5 39.3996C22.2239 39.3996 22 39.6235 22 39.8996V43.4996C22 43.7757 22.2239 43.9996 22.5 43.9996H25.9083C26.1845 43.9996 26.4083 43.7758 26.4083 43.4996V42.1996C26.4083 41.9235 26.6322 41.6996 26.9083 41.6996H27.75H30.125C30.4011 41.6996 30.625 41.9235 30.625 42.1996V43.4996C30.625 43.7757 30.8489 43.9996 31.125 43.9996H33.5H35.875C36.1511 43.9996 36.375 43.7758 36.375 43.4996V42.1996C36.375 41.9235 36.5989 41.6996 36.875 41.6996H39.25H40.0917C40.3678 41.6996 40.5917 41.9235 40.5917 42.1996V43.4996C40.5917 43.7757 40.8155 43.9996 41.0917 43.9996H44.5C44.7761 43.9996 45 43.7758 45 43.4996V39.8996C45 39.6235 44.7761 39.3996 44.5 39.3996H22.5ZM23.533 33.7667C23.533 33.4906 23.7568 33.2667 24.033 33.2667H30.6996C30.9758 33.2667 31.1996 33.4906 31.1996 33.7667V37.3667C31.1996 37.6429 30.9758 37.8667 30.6996 37.8667H24.033C23.7568 37.8667 23.533 37.6429 23.533 37.3667V33.7667ZM33.2335 33.2667C32.9574 33.2667 32.7335 33.4906 32.7335 33.7667V37.3667C32.7335 37.6429 32.9574 37.8667 33.2335 37.8667H42.9669C43.243 37.8667 43.4669 37.6429 43.4669 37.3667V33.7667C43.4669 33.4906 43.243 33.2667 42.9669 33.2667H33.2335ZM25.0673 27.6331C25.0673 27.357 25.2912 27.1331 25.5673 27.1331H33.7673C34.0435 27.1331 34.2673 27.357 34.2673 27.6331V31.2331C34.2673 31.5093 34.0435 31.7331 33.7673 31.7331H25.5673C25.2912 31.7331 25.0673 31.5093 25.0673 31.2331V27.6331ZM36.2994 20.9999C36.0233 20.9999 35.7994 21.2237 35.7994 21.4999V31.2332C35.7994 31.5094 36.0233 31.7332 36.2994 31.7332H41.4328C41.7089 31.7332 41.9328 31.5094 41.9328 31.2332V21.4999C41.9328 21.2237 41.7089 20.9999 41.4328 20.9999H36.2994Z" fill="#1458D6"/>
</svg>
