<svg width="66" height="66" viewBox="0 0 66 66" fill="none" xmlns="http://www.w3.org/2000/svg">
<path fill-rule="evenodd" clip-rule="evenodd" d="M66 33C66 51.2254 51.2254 66 33 66C14.7746 66 0 51.2254 0 33C0 14.7746 14.7746 0 33 0C51.2254 0 66 14.7746 66 33ZM22 30.8998C22 30.6236 22.2239 30.3998 22.5 30.3998H25.7C25.9761 30.3998 26.2 30.6236 26.2 30.8998V44.3998H22V30.8998ZM28.0999 24.7999C27.8238 24.7999 27.5999 25.0237 27.5999 25.2999V44.3999H31.7999V25.2999C31.7999 25.0237 31.5761 24.7999 31.2999 24.7999H28.0999ZM33.1998 32.2998C33.1998 32.0236 33.4237 31.7998 33.6998 31.7998H36.8998C37.176 31.7998 37.3998 32.0236 37.3998 32.2998V44.3998H33.1998V32.2998ZM39.2997 21.9999C39.0236 21.9999 38.7997 22.2238 38.7997 22.4999V44.3999H42.9997V22.4999C42.9997 22.2238 42.7759 21.9999 42.4997 21.9999H39.2997Z" fill="#089A4E"/>
</svg>
