<svg width="66" height="66" viewBox="0 0 66 66" fill="none" xmlns="http://www.w3.org/2000/svg">
<path fill-rule="evenodd" clip-rule="evenodd" d="M66 33C66 51.2254 51.2254 66 33 66C14.7746 66 0 51.2254 0 33C0 14.7746 14.7746 0 33 0C51.2254 0 66 14.7746 66 33ZM47.9997 33C47.9997 35.2092 46.2089 37 43.9997 37C41.7906 37 39.9997 35.2092 39.9997 33C39.9997 30.7909 41.7906 29 43.9997 29C46.2089 29 47.9997 30.7909 47.9997 33ZM19 24.5C19 23.6716 19.6716 23 20.5 23H42.5C43.3284 23 44 23.6716 44 24.5V28C41.2386 28 39 30.2386 39 33C39 35.7614 41.2386 38 44 38V41.5C44 42.3284 43.3284 43 42.5 43H19V24.5ZM22.333 38.7502H30.6663V37.2502H22.333V38.7502ZM28.583 33.7502H22.333V32.2502H28.583V33.7502Z" fill="#FE6C40"/>
</svg>
