<svg width="75" height="25" viewBox="0 0 75 25" fill="none" xmlns="http://www.w3.org/2000/svg">
<path d="M32.0955 13.0232C32.0955 16.5836 29.3167 19.2072 25.9066 19.2072C22.4965 19.2072 19.7178 16.5836 19.7178 13.0232C19.7178 9.43773 22.4965 6.83923 25.9066 6.83923C29.3167 6.83923 32.0955 9.43773 32.0955 13.0232ZM29.3863 13.0232C29.3863 10.7983 27.7758 9.27603 25.9066 9.27603C24.0374 9.27603 22.427 10.7983 22.427 13.0232C22.427 15.2258 24.0374 16.7704 25.9066 16.7704C27.7758 16.7704 29.3863 15.223 29.3863 13.0232Z" fill="#EA4335"/>
<path d="M45.4475 13.0232C45.4475 16.5836 42.6688 19.2072 39.2587 19.2072C35.8485 19.2072 33.0698 16.5836 33.0698 13.0232C33.0698 9.44052 35.8485 6.83923 39.2587 6.83923C42.6688 6.83923 45.4475 9.43773 45.4475 13.0232ZM42.7383 13.0232C42.7383 10.7983 41.1278 9.27603 39.2587 9.27603C37.3895 9.27603 35.779 10.7983 35.779 13.0232C35.779 15.2258 37.3895 16.7704 39.2587 16.7704C41.1278 16.7704 42.7383 15.223 42.7383 13.0232Z" fill="#FBBC05"/>
<path d="M58.2415 7.21284V18.315C58.2415 22.8819 55.5546 24.7471 52.3781 24.7471C49.388 24.7471 47.5883 22.7425 46.9097 21.1031L49.2684 20.1189C49.6884 21.1254 50.7175 22.3131 52.3753 22.3131C54.4086 22.3131 55.6686 21.0557 55.6686 18.6886V17.7992H55.574C54.9677 18.5492 53.7994 19.2044 52.3252 19.2044C49.2406 19.2044 46.4146 16.5111 46.4146 13.0455C46.4146 9.55483 49.2406 6.83923 52.3252 6.83923C53.7967 6.83923 54.9649 7.49443 55.574 8.22213H55.6686V7.21563H58.2415V7.21284ZM55.8605 13.0455C55.8605 10.868 54.4114 9.27603 52.5672 9.27603C50.6981 9.27603 49.1321 10.868 49.1321 13.0455C49.1321 15.2007 50.6981 16.7704 52.5672 16.7704C54.4114 16.7704 55.8605 15.2007 55.8605 13.0455Z" fill="#4285F4"/>
<path d="M62.4837 0.705322V18.8279H59.8413V0.705322H62.4837Z" fill="#34A853"/>
<path d="M72.7801 15.0585L74.8829 16.4637C74.2042 17.4702 72.5687 19.2044 69.7427 19.2044C66.238 19.2044 63.6206 16.4888 63.6206 13.0204C63.6206 9.34292 66.2602 6.83643 69.4395 6.83643C72.641 6.83643 74.207 9.39032 74.7188 10.7704L74.9997 11.473L66.7526 14.8968C67.384 16.1375 68.3658 16.7704 69.7427 16.7704C71.1223 16.7704 72.0792 16.0901 72.7801 15.0585ZM66.3075 12.8336L71.8205 10.539C71.5173 9.76671 70.605 9.22861 69.5313 9.22861C68.1545 9.22861 66.238 10.447 66.3075 12.8336Z" fill="#EA4335"/>
<path d="M9.71578 11.4144V8.79085H18.5359C18.6221 9.2481 18.6667 9.78899 18.6667 10.3745C18.6667 12.3429 18.1298 14.7769 16.3997 16.5111C14.7169 18.2676 12.5668 19.2044 9.71856 19.2044C4.43928 19.2044 0 14.894 0 9.60219C0 4.31039 4.43928 0 9.71856 0C12.6391 0 14.7197 1.14869 16.2829 2.6459L14.436 4.49719C13.315 3.44329 11.7963 2.62359 9.71578 2.62359C5.86062 2.62359 2.84548 5.73789 2.84548 9.60219C2.84548 13.4665 5.86062 16.5808 9.71578 16.5808C12.2164 16.5808 13.6405 15.5743 14.5528 14.6598C15.2927 13.9182 15.7795 12.8587 15.9714 11.4117L9.71578 11.4144Z" fill="#4285F4"/>
</svg>
