<svg width="80" height="18" viewBox="0 0 80 18" fill="none" xmlns="http://www.w3.org/2000/svg">
<path fill-rule="evenodd" clip-rule="evenodd" d="M49.3713 5.76944L51.6392 4.12793H44.0518V13.987H51.6392V12.3455H46.2179V9.82074H50.842V8.17922H46.2179V5.76944H49.3713Z" fill="#21A038"/>
<path fill-rule="evenodd" clip-rule="evenodd" d="M38.3268 7.97091H35.6925V5.76944H39.8976L42.1638 4.12793H33.5264V13.9887H38.0436C40.5795 13.9887 42.0332 12.8605 42.0332 10.8923C42.0366 9.00748 40.7186 7.97091 38.3268 7.97091ZM37.9503 12.3455H35.6925V9.61575H37.9486C39.3243 9.61575 39.9638 10.0724 39.9638 10.9823C39.9638 11.9089 39.2869 12.3455 37.9486 12.3455H37.9503Z" fill="#21A038"/>
<path fill-rule="evenodd" clip-rule="evenodd" d="M57.7874 4.12988H53.6553V13.9906H55.8231V11.1992H57.7874C60.4234 11.1992 62.0603 9.83769 62.0603 7.66122C62.0603 5.48476 60.4217 4.12988 57.7874 4.12988ZM57.7416 9.55438H55.8231V5.7714H57.7416C59.1292 5.7714 59.8925 6.443 59.8925 7.66289C59.8925 8.88278 59.1258 9.55271 57.7399 9.55271L57.7416 9.55438Z" fill="#21A038"/>
<path fill-rule="evenodd" clip-rule="evenodd" d="M29.8105 11.8523C29.244 12.154 28.6095 12.3123 27.965 12.3123H27.9412C25.9888 12.3123 24.5724 10.9441 24.5724 9.05758C24.5724 7.17109 25.9888 5.80288 27.9412 5.80288C27.9565 5.80288 27.9734 5.80288 27.9887 5.80288C28.6774 5.80288 29.3508 6.01453 29.9106 6.40782L31.4661 5.28293L31.3626 5.1946C30.4551 4.41134 29.244 3.99805 27.8598 3.99805C26.3586 3.99805 24.9948 4.49633 24.0211 5.39958C23.0474 6.30283 22.5029 7.58605 22.5029 9.00092C22.5029 10.4158 23.039 11.719 24.016 12.6572C24.9914 13.5938 26.3518 14.1171 27.8428 14.1171C29.3339 14.1171 30.7672 13.5822 31.69 12.6106L30.2872 11.594L29.8088 11.8523H29.8105Z" fill="#21A038"/>
<path fill-rule="evenodd" clip-rule="evenodd" d="M15.7426 4.04965C16.1378 4.55127 16.4754 5.10122 16.7417 5.67783L9.14742 11.1773L5.97368 9.2225V6.87105L9.14742 8.82587L15.7426 4.04798V4.04965Z" fill="#21A038"/>
<path d="M15.4842 8.93635C15.485 8.97652 15.4854 9.01678 15.4854 9.05713C15.4854 12.5566 12.6484 15.3936 9.14893 15.3936C5.64941 15.3936 2.8125 12.5566 2.8125 9.05713C2.8125 5.55762 5.64941 2.7207 9.14893 2.7207C10.489 2.7207 11.732 3.13672 12.7556 3.84665L14.4486 2.62183C13.008 1.43409 11.1618 0.720703 9.14893 0.720703C4.54484 0.720703 0.8125 4.45305 0.8125 9.05713C0.8125 13.6612 4.54484 17.3936 9.14893 17.3936C13.753 17.3936 17.4854 13.6612 17.4854 9.05713C17.4854 8.55398 17.4408 8.06124 17.3554 7.58264L15.4842 8.93635Z" fill="#21A038"/>
<path d="M15.4842 8.93635C15.485 8.97652 15.4854 9.01678 15.4854 9.05713C15.4854 12.5566 12.6484 15.3936 9.14893 15.3936C5.64941 15.3936 2.8125 12.5566 2.8125 9.05713C2.8125 5.55762 5.64941 2.7207 9.14893 2.7207C10.489 2.7207 11.732 3.13672 12.7556 3.84665L14.4486 2.62183C13.008 1.43409 11.1618 0.720703 9.14893 0.720703C4.54484 0.720703 0.8125 4.45305 0.8125 9.05713C0.8125 13.6612 4.54484 17.3936 9.14893 17.3936C13.753 17.3936 17.4854 13.6612 17.4854 9.05713C17.4854 8.55398 17.4408 8.06124 17.3554 7.58264L15.4842 8.93635Z" fill="url(#paint0_radial_1107_16863)"/>
<path d="M15.4842 8.93635C15.485 8.97652 15.4854 9.01678 15.4854 9.05713C15.4854 12.5566 12.6484 15.3936 9.14893 15.3936C5.64941 15.3936 2.8125 12.5566 2.8125 9.05713C2.8125 5.55762 5.64941 2.7207 9.14893 2.7207C10.489 2.7207 11.732 3.13672 12.7556 3.84665L14.4486 2.62183C13.008 1.43409 11.1618 0.720703 9.14893 0.720703C4.54484 0.720703 0.8125 4.45305 0.8125 9.05713C0.8125 13.6612 4.54484 17.3936 9.14893 17.3936C13.753 17.3936 17.4854 13.6612 17.4854 9.05713C17.4854 8.55398 17.4408 8.06124 17.3554 7.58264L15.4842 8.93635Z" fill="url(#paint1_radial_1107_16863)"/>
<path fill-rule="evenodd" clip-rule="evenodd" d="M67.0723 4.15285C67.6694 4.14952 68.2664 4.15285 68.8652 4.15285C68.8652 7.43588 68.8652 10.7172 68.8652 14.0003C68.2681 14.0053 67.6711 14.0003 67.074 14.0036C67.074 10.7206 67.074 7.43754 67.074 4.15452L67.0723 4.15285ZM71.0314 4.15285C72.1764 4.15118 73.3214 4.15285 74.4647 4.15285C75.6215 4.14618 76.8157 4.29284 77.8521 4.82779C78.7817 5.31274 79.484 6.18266 79.7655 7.17924C80.0369 8.07415 80.0454 9.02906 79.9267 9.94898C79.7757 11.0705 79.2448 12.1738 78.3305 12.8854C77.3076 13.697 75.9574 13.9586 74.6733 13.9986C73.4588 14.0069 72.2459 13.9986 71.0314 14.0019C71.0314 10.7189 71.0314 7.43588 71.0314 4.15285ZM72.8244 5.77103C72.8244 7.97583 72.8244 10.179 72.8244 12.3838C73.7929 12.3604 74.7768 12.4587 75.7335 12.2571C76.4086 12.1188 77.0617 11.7855 77.4806 11.2355C77.998 10.5723 78.1405 9.70567 78.1201 8.89074C78.0998 8.13081 77.9234 7.32922 77.4009 6.74428C76.909 6.18766 76.1626 5.93268 75.4383 5.83103C74.5715 5.7227 73.6945 5.79103 72.8244 5.7727V5.77103Z" fill="#363F48"/>
<defs>
<radialGradient id="paint0_radial_1107_16863" cx="0" cy="0" r="1" gradientUnits="userSpaceOnUse" gradientTransform="translate(3.56315 14.5232) rotate(134.748) scale(10.03 16.3548)">
<stop stop-color="#F2E913"/>
<stop offset="1" stop-color="white" stop-opacity="0"/>
</radialGradient>
<radialGradient id="paint1_radial_1107_16863" cx="0" cy="0" r="1" gradientUnits="userSpaceOnUse" gradientTransform="translate(7.64729 1.98499) rotate(-85.9178) scale(11.7912 13.7035)">
<stop stop-color="#0197F5"/>
<stop offset="1" stop-color="#0197F5" stop-opacity="0"/>
</radialGradient>
</defs>
</svg>
