<svg width="178" height="25" viewBox="0 0 178 25" fill="none" xmlns="http://www.w3.org/2000/svg">
<path d="M7.99711 16.9319C7.99711 17.6505 7.81744 18.2517 7.45811 18.7354C7.09878 19.2191 6.58742 19.5854 5.92404 19.8342C5.26066 20.0829 4.4729 20.2073 3.56075 20.2073C2.7868 20.2073 2.11651 20.1451 1.54987 20.0207C0.997054 19.8963 0.506429 19.7236 0.0779947 19.5025V17.844C0.520249 18.0651 1.05234 18.2724 1.67426 18.4659C2.31 18.6456 2.95265 18.7354 3.60221 18.7354C4.52818 18.7354 5.19847 18.5903 5.61308 18.3001C6.0277 17.996 6.235 17.5952 6.235 17.0977C6.235 16.8213 6.15899 16.5725 6.00697 16.3514C5.85494 16.1303 5.57853 15.9091 5.17774 15.688C4.79077 15.4669 4.23104 15.2181 3.49855 14.9417C2.77989 14.6653 2.16488 14.3889 1.65353 14.1125C1.14217 13.8361 0.748286 13.5044 0.471877 13.1174C0.195469 12.7304 0.0572641 12.2329 0.0572641 11.6248C0.0572641 10.685 0.437326 9.95945 1.19745 9.44809C1.9714 8.93673 2.98029 8.68106 4.22413 8.68106C4.90133 8.68106 5.53016 8.75016 6.11062 8.88836C6.7049 9.01275 7.25772 9.19241 7.76907 9.42736L7.14715 10.8785C6.8431 10.7403 6.51832 10.6228 6.17281 10.5261C5.84112 10.4155 5.50252 10.3326 5.15701 10.2773C4.8115 10.2082 4.45908 10.1737 4.09974 10.1737C3.35344 10.1737 2.77989 10.298 2.3791 10.5468C1.99213 10.7818 1.79864 11.1065 1.79864 11.5212C1.79864 11.8252 1.88847 12.0878 2.06814 12.3089C2.2478 12.5162 2.54494 12.7235 2.95956 12.9308C3.38799 13.1243 3.95463 13.3593 4.65947 13.6357C5.36431 13.8983 5.9655 14.1678 6.46304 14.4442C6.96058 14.7206 7.34064 15.0592 7.60323 15.46C7.86582 15.847 7.99711 16.3376 7.99711 16.9319ZM15.9886 8.68106C17.3568 8.68106 18.4556 9.15786 19.2848 10.1115C20.1278 11.0651 20.5494 12.5024 20.5494 14.4235C20.5494 15.6811 20.3559 16.7453 19.9689 17.616C19.5958 18.4728 19.0637 19.1224 18.3726 19.5647C17.6954 19.9931 16.8939 20.2073 15.9679 20.2073C15.4013 20.2073 14.8968 20.1313 14.4546 19.9793C14.0123 19.8272 13.6322 19.6338 13.3144 19.3988C13.0103 19.15 12.7477 18.8805 12.5266 18.5903H12.4022C12.4299 18.8253 12.4575 19.1224 12.4851 19.4817C12.5128 19.8411 12.5266 20.152 12.5266 20.4146V24.9754H10.7023V8.88836H12.1949L12.4437 10.4017H12.5266C12.7477 10.0838 13.0103 9.7936 13.3144 9.53101C13.6322 9.26842 14.0054 9.06112 14.4338 8.90909C14.8761 8.75707 15.3943 8.68106 15.9886 8.68106ZM15.6569 10.2151C14.9106 10.2151 14.3094 10.3602 13.8534 10.6505C13.3973 10.9269 13.0656 11.3484 12.8583 11.915C12.651 12.4817 12.5404 13.2003 12.5266 14.071V14.4235C12.5266 15.3356 12.6233 16.1095 12.8168 16.7453C13.0103 17.381 13.3351 17.8647 13.7912 18.1964C14.2611 18.5281 14.8968 18.694 15.6984 18.694C16.3756 18.694 16.9284 18.5074 17.3568 18.1342C17.7991 17.7611 18.1239 17.2566 18.3312 16.6209C18.5523 15.9713 18.6629 15.2319 18.6629 14.4027C18.6629 13.1312 18.4141 12.1154 17.9166 11.3553C17.4329 10.5952 16.6796 10.2151 15.6569 10.2151ZM25.2808 8.88836V20H23.4565V8.88836H25.2808ZM24.3894 4.7215C24.6658 4.7215 24.9077 4.81824 25.115 5.01173C25.3361 5.19139 25.4467 5.48162 25.4467 5.88241C25.4467 6.26939 25.3361 6.55962 25.115 6.7531C24.9077 6.94659 24.6658 7.04333 24.3894 7.04333C24.0853 7.04333 23.8297 6.94659 23.6224 6.7531C23.4151 6.55962 23.3114 6.26939 23.3114 5.88241C23.3114 5.48162 23.4151 5.19139 23.6224 5.01173C23.8297 4.81824 24.0853 4.7215 24.3894 4.7215ZM33.2582 20.2073C32.277 20.2073 31.3994 20.0069 30.6254 19.6061C29.8653 19.2053 29.2641 18.5834 28.8219 17.7404C28.3934 16.8973 28.1792 15.8193 28.1792 14.5064C28.1792 13.1381 28.4073 12.0256 28.8633 11.1687C29.3194 10.3119 29.9344 9.68304 30.7084 9.28224C31.4961 8.88145 32.3876 8.68106 33.3826 8.68106C33.9493 8.68106 34.4952 8.74325 35.0203 8.86763C35.5455 8.97819 35.974 9.1164 36.3056 9.28224L35.7459 10.7956C35.4142 10.6712 35.0273 10.5537 34.585 10.4432C34.1427 10.3326 33.7281 10.2773 33.3412 10.2773C32.5949 10.2773 31.9798 10.4363 31.4961 10.7541C31.0124 11.072 30.6531 11.5419 30.4181 12.1638C30.1832 12.7857 30.0657 13.5597 30.0657 14.4856C30.0657 15.3702 30.1832 16.1234 30.4181 16.7453C30.6531 17.3672 31.0055 17.8371 31.4754 18.155C31.9453 18.4728 32.5327 18.6318 33.2375 18.6318C33.8456 18.6318 34.3777 18.5696 34.8338 18.4452C35.3037 18.3208 35.7321 18.1688 36.1191 17.9891V19.6061C35.7459 19.7996 35.3313 19.9447 34.8752 20.0415C34.433 20.152 33.894 20.2073 33.2582 20.2073ZM40.5859 8.86763C40.5859 9.13022 40.5721 9.39972 40.5444 9.67613C40.5306 9.95254 40.5099 10.2013 40.4822 10.4224H40.6066C40.8416 10.0355 41.1387 9.71759 41.498 9.46882C41.8574 9.22005 42.2582 9.03348 42.7004 8.90909C43.1427 8.77089 43.5987 8.70179 44.0686 8.70179C44.967 8.70179 45.7133 8.8469 46.3075 9.13713C46.9156 9.41354 47.3717 9.84888 47.6758 10.4432C47.9798 11.0374 48.1318 11.8114 48.1318 12.765V20H46.3283V12.8894C46.3283 11.9911 46.1279 11.3208 45.7271 10.8785C45.3263 10.4363 44.6975 10.2151 43.8406 10.2151C43.0114 10.2151 42.3618 10.3741 41.8919 10.6919C41.422 10.996 41.0834 11.4521 40.8761 12.0602C40.6826 12.6544 40.5859 13.3869 40.5859 14.2576V20H38.7616V4.24469H40.5859V8.86763ZM53.3801 12.4748C53.3801 12.6959 53.3663 12.9861 53.3386 13.3455C53.3248 13.7048 53.311 14.0157 53.2972 14.2783H53.3801C53.463 14.1678 53.5874 14.0088 53.7533 13.8015C53.9191 13.5942 54.0849 13.3869 54.2508 13.1796C54.4305 12.9585 54.5825 12.7788 54.7069 12.6406L58.2518 8.88836H60.3871L55.8885 13.6357L60.698 20H58.5006L54.6447 14.8173L53.3801 15.9161V20H51.5765V4.24469H53.3801V12.4748ZM66.8588 8.70179C68.2132 8.70179 69.2151 8.99893 69.8647 9.5932C70.5143 10.1875 70.839 11.1342 70.839 12.4333V20H69.5123L69.1599 18.4245H69.0769C68.7591 18.8253 68.4274 19.1639 68.0819 19.4403C67.7502 19.7029 67.3632 19.8963 66.921 20.0207C66.4925 20.1451 65.9673 20.2073 65.3454 20.2073C64.682 20.2073 64.0809 20.0898 63.5419 19.8549C63.0167 19.6199 62.6021 19.2606 62.298 18.7769C61.994 18.2794 61.8419 17.6574 61.8419 16.9111C61.8419 15.8055 62.2773 14.9555 63.148 14.3613C64.0187 13.7532 65.3592 13.4215 67.1697 13.3662L69.0562 13.304V12.6406C69.0562 11.7146 68.8558 11.072 68.455 10.7127C68.0542 10.3533 67.4876 10.1737 66.7551 10.1737C66.1746 10.1737 65.6218 10.2635 65.0967 10.4432C64.5715 10.609 64.0809 10.8025 63.6248 11.0236L63.065 9.6554C63.5488 9.39281 64.1223 9.17168 64.7857 8.99202C65.4491 8.79853 66.1401 8.70179 66.8588 8.70179ZM67.3978 14.6308C66.0157 14.686 65.0552 14.9072 64.5162 15.2941C63.991 15.6811 63.7284 16.227 63.7284 16.9319C63.7284 17.5538 63.915 18.0099 64.2882 18.3001C64.6751 18.5903 65.1658 18.7354 65.76 18.7354C66.6998 18.7354 67.4807 18.4798 68.1026 17.9684C68.7245 17.4432 69.0355 16.6416 69.0355 15.5636V14.5686L67.3978 14.6308ZM73.4199 18.8562C73.4199 18.6807 73.4502 18.5154 73.511 18.3602C73.5784 18.1982 73.6695 18.0599 73.7843 17.9452C73.899 17.8237 74.034 17.7292 74.1892 17.6617C74.3511 17.5875 74.5232 17.5504 74.7054 17.5504C74.8876 17.5504 75.0563 17.5875 75.2115 17.6617C75.3735 17.7292 75.5118 17.8237 75.6265 17.9452C75.748 18.0599 75.8391 18.1982 75.8998 18.3602C75.9673 18.5154 76.0011 18.6807 76.0011 18.8562C76.0011 19.0451 75.9673 19.2172 75.8998 19.3724C75.8391 19.5276 75.748 19.666 75.6265 19.7874C75.5118 19.9022 75.3735 19.9899 75.2115 20.0506C75.0563 20.1181 74.8876 20.1518 74.7054 20.1518C74.5232 20.1518 74.3511 20.1181 74.1892 20.0506C74.034 19.9899 73.899 19.9022 73.7843 19.7874C73.6695 19.666 73.5784 19.5276 73.511 19.3724C73.4502 19.2172 73.4199 19.0451 73.4199 18.8562Z" fill="black"/>
<path d="M96.2835 5.81384C97.8654 5.81384 99.0561 6.22208 99.8556 7.03855C100.672 7.83801 101.08 9.13075 101.08 10.9168V20H97.2786V11.8608C97.2786 10.8572 97.1085 10.1088 96.7683 9.61553C96.4281 9.10524 95.9008 8.85009 95.1864 8.85009C94.1828 8.85009 93.4684 9.2073 93.0432 9.92171C92.6179 10.6361 92.4053 11.6652 92.4053 13.009V20H88.6036V11.8608C88.6036 11.1974 88.5271 10.6446 88.374 10.2024C88.2209 9.76011 87.9913 9.42842 87.6851 9.2073C87.3789 8.96916 86.9877 8.85009 86.5114 8.85009C85.814 8.85009 85.2612 9.02869 84.853 9.3859C84.4447 9.7431 84.1556 10.2619 83.9855 10.9423C83.8154 11.6227 83.7303 12.4562 83.7303 13.4427V20H79.9286V6.06899H82.8373L83.3476 7.85502H83.5517C83.8409 7.37875 84.1981 6.99603 84.6233 6.70686C85.0486 6.40068 85.5163 6.17956 86.0266 6.04348C86.5539 5.89039 87.0812 5.81384 87.6086 5.81384C88.6291 5.81384 89.4966 5.98394 90.211 6.32414C90.9255 6.64732 91.4698 7.15762 91.844 7.85502H92.1757C92.6009 7.14061 93.1878 6.62181 93.9362 6.29862C94.7016 5.97544 95.4841 5.81384 96.2835 5.81384ZM111.986 5.78833C113.857 5.78833 115.286 6.19657 116.272 7.01304C117.276 7.81249 117.778 9.0457 117.778 10.7127V20H115.124L114.384 18.1119H114.282C113.891 18.6052 113.483 19.0134 113.057 19.3366C112.649 19.6598 112.173 19.8894 111.629 20.0255C111.101 20.1786 110.446 20.2551 109.664 20.2551C108.848 20.2551 108.108 20.1021 107.444 19.7959C106.798 19.4727 106.288 18.9879 105.913 18.3415C105.539 17.6782 105.352 16.8447 105.352 15.8411C105.352 14.3613 105.871 13.2726 106.908 12.5752C107.946 11.8608 109.502 11.4696 111.578 11.4016L114.001 11.325V10.7127C114.001 9.98124 113.806 9.44543 113.415 9.10524C113.04 8.76504 112.513 8.59494 111.833 8.59494C111.152 8.59494 110.489 8.697 109.843 8.90112C109.196 9.08823 108.55 9.32636 107.903 9.61553L106.653 7.03855C107.402 6.64732 108.227 6.34115 109.128 6.12002C110.047 5.89889 110.999 5.78833 111.986 5.78833ZM112.522 13.5958C111.297 13.6298 110.446 13.851 109.97 14.2592C109.494 14.6674 109.256 15.2032 109.256 15.8666C109.256 16.445 109.426 16.8617 109.766 17.1168C110.106 17.355 110.548 17.474 111.093 17.474C111.909 17.474 112.598 17.2359 113.159 16.7596C113.721 16.2664 114.001 15.5775 114.001 14.6929V13.5448L112.522 13.5958ZM130.727 5.81384C130.914 5.81384 131.135 5.82235 131.39 5.83936C131.645 5.85637 131.849 5.88188 132.002 5.9159L131.722 9.48796C131.603 9.45394 131.424 9.42842 131.186 9.41141C130.965 9.37739 130.769 9.36038 130.599 9.36038C130.106 9.36038 129.63 9.42842 129.17 9.5645C128.711 9.68357 128.294 9.87918 127.92 10.1513C127.563 10.4235 127.274 10.7892 127.053 11.2485C126.849 11.6907 126.746 12.2435 126.746 12.9069V20H122.945V6.06899H125.828L126.389 8.41634H126.568C126.84 7.94007 127.18 7.50632 127.588 7.11509C127.997 6.72387 128.464 6.40919 128.992 6.17105C129.536 5.93291 130.114 5.81384 130.727 5.81384ZM139.608 9.28384C139.608 9.81114 139.583 10.3384 139.532 10.8657C139.498 11.376 139.455 11.8948 139.404 12.4221H139.455C139.625 12.184 139.796 11.9459 139.966 11.7077C140.153 11.4696 140.34 11.2315 140.527 10.9933C140.714 10.7552 140.91 10.5256 141.114 10.3044L145.018 6.06899H149.304L143.767 12.116L149.636 20H145.247L141.241 14.3613L139.608 15.6625V20H135.807V0.608853H139.608V9.28384ZM158.645 5.81384C159.938 5.81384 161.044 6.06049 161.962 6.55377C162.898 7.04705 163.621 7.76146 164.131 8.697C164.641 9.63254 164.896 10.7807 164.896 12.1415V13.9785H155.915C155.949 15.0502 156.264 15.8921 156.859 16.5045C157.472 17.1168 158.314 17.423 159.385 17.423C160.287 17.423 161.103 17.338 161.835 17.1679C162.566 16.9808 163.323 16.7001 164.106 16.3259V19.2601C163.425 19.6003 162.702 19.8469 161.937 20C161.188 20.1701 160.278 20.2551 159.207 20.2551C157.812 20.2551 156.579 20 155.507 19.4897C154.435 18.9624 153.593 18.1714 152.981 17.1168C152.369 16.0622 152.063 14.7355 152.063 13.1366C152.063 11.5036 152.335 10.1513 152.879 9.07972C153.44 7.9911 154.214 7.17463 155.201 6.63031C156.187 6.086 157.336 5.81384 158.645 5.81384ZM158.671 8.5184C157.939 8.5184 157.327 8.75654 156.834 9.23281C156.358 9.70908 156.077 10.449 155.992 11.4526H161.324C161.324 10.8913 161.222 10.3895 161.018 9.94722C160.831 9.50497 160.542 9.15627 160.151 8.90112C159.76 8.64597 159.266 8.5184 158.671 8.5184ZM175.123 17.2189C175.549 17.2189 175.957 17.1764 176.348 17.0913C176.739 17.0063 177.13 16.9042 177.522 16.7852V19.6173C177.113 19.7874 176.603 19.932 175.991 20.051C175.395 20.1871 174.741 20.2551 174.026 20.2551C173.193 20.2551 172.444 20.1191 171.781 19.8469C171.134 19.5748 170.616 19.107 170.224 18.4436C169.85 17.7632 169.663 16.8277 169.663 15.637V8.92663H167.852V7.31921L169.944 6.04348L171.041 3.10929H173.465V6.06899H177.369V8.92663H173.465V15.637C173.465 16.1643 173.618 16.564 173.924 16.8362C174.23 17.0913 174.63 17.2189 175.123 17.2189Z" fill="#1458D6"/>
</svg>
