<svg width="76" height="22" viewBox="0 0 76 22" fill="none" xmlns="http://www.w3.org/2000/svg">
<path d="M72.6578 19.1209C74.152 19.1209 75.212 18.8492 75.9998 18.2799V15.6492C75.1843 16.2185 74.2062 16.5714 72.8474 16.5714C70.5384 16.5714 69.5874 14.7812 69.5874 11.9605C69.5874 9.00403 70.7558 7.48554 72.8752 7.48554C74.1249 7.48554 75.3475 7.91959 75.9998 8.32658V5.5871C75.3204 5.20715 74.1249 4.93604 72.5216 4.93604C68.3919 4.93604 66.2447 7.89254 66.2447 12.0417C66.2447 16.5985 68.337 19.1209 72.6578 19.1209ZM52.4419 17.927V15.2963C51.4368 15.9744 49.7522 16.5714 48.1761 16.5714C45.8115 16.5714 44.9154 15.4593 44.7792 13.1809H52.5774V11.4724C52.5774 6.7263 50.4851 4.93604 47.2522 4.93604C43.3121 4.93604 41.4366 7.94663 41.4366 12.0687C41.4366 16.8155 43.7741 19.1203 47.9038 19.1203C49.969 19.1203 51.491 18.578 52.4419 17.927ZM22.8247 5.20715V10.6043H18.5039V5.20715H15.271V18.8492H18.5039V13.1545H22.8247V18.8498H26.0583V5.20847H22.8247V5.20715ZM40.6495 16.301H39.2088V5.20715H29.7809V6.37339C29.7809 9.70919 29.5642 14.0219 28.4228 16.3003H27.417V21.9686H30.4061V18.8492H37.6611V21.9686H40.6502V16.3003L40.6495 16.301ZM62.7673 18.8498H66.4351L61.2453 11.5001L65.8106 5.20781H62.5499L57.9846 11.5001V5.20781H54.7517V18.8498H57.9846V12.1505L62.7673 18.8492V18.8498ZM47.1973 7.4862C48.8006 7.4862 49.2896 8.81538 49.2896 10.5238V10.795H44.7792C44.8612 8.62474 45.6483 7.4862 47.1973 7.4862ZM35.9759 16.301H31.4106C32.3074 14.2396 32.5519 10.5238 32.5519 8.16431V7.75732H35.9752L35.9759 16.301Z" fill="black"/>
<path d="M12.5531 18.8492H9.26531V2.54951H7.79819C5.10848 2.54951 3.69555 3.90507 3.69555 5.91235C3.69555 8.19009 4.67363 9.24815 6.68398 10.6044L8.34142 11.7165L3.55941 18.8492H0L4.29297 12.4758C1.82068 10.7126 0.434848 9.00409 0.434848 6.10233C0.434848 2.46771 2.96199 0 7.7711 0H12.5531V18.8492Z" fill="#FC3F1D"/>
</svg>
